<?xml version="1.0" encoding="UTF-8"?>
<svg xmlns="http://www.w3.org/2000/svg" xmlns:xlink="http://www.w3.org/1999/xlink" width="2100" height="2101" viewBox="0 0 2100 2101">
<defs>
<clipPath id="clip-0">
<path clip-rule="nonzero" d="M 0 0.171875 L 2100 0.171875 L 2100 2100.171875 L 0 2100.171875 Z M 0 0.171875 "/>
</clipPath>
<clipPath id="clip-1">
<path clip-rule="nonzero" d="M 447 655 L 1675 655 L 1675 2100.171875 L 447 2100.171875 Z M 447 655 "/>
</clipPath>
<clipPath id="clip-2">
<path clip-rule="nonzero" d="M 1179 1447 L 1940 1447 L 1940 2100.171875 L 1179 2100.171875 Z M 1179 1447 "/>
</clipPath>
<clipPath id="clip-3">
<path clip-rule="nonzero" d="M 1204 2078 L 1223 2078 L 1223 2100.171875 L 1204 2100.171875 Z M 1204 2078 "/>
</clipPath>
</defs>
<g clip-path="url(#clip-0)">
<path fill-rule="evenodd" fill="rgb(100%, 100%, 100%)" fill-opacity="1" d="M 2100 0.171875 L 0 0.171875 L 0 2100.171875 L 2100 2100.171875 L 2100 0.171875 "/>
</g>
<path fill-rule="evenodd" fill="rgb(0%, 0%, 0%)" fill-opacity="1" d="M 2106.101562 1525.859375 C 2106.101562 1525.859375 2037.871094 1632.695312 2026.769531 1621.632812 C 2015.671875 1610.550781 2096.230469 1522.699219 2106.101562 1525.859375 "/>
<path fill-rule="evenodd" fill="rgb(0%, 0%, 0%)" fill-opacity="1" d="M 1360.578125 495.96875 C 1360.578125 495.96875 1400.578125 478.730469 1402.488281 516.769531 C 1404.371094 554.820312 1407.089844 554.589844 1396.910156 577.019531 C 1386.761719 599.460938 1383.941406 624.46875 1386.578125 645.589844 C 1389.21875 666.710938 1360.621094 663.511719 1356.621094 700.199219 C 1352.621094 736.890625 1343.75 726.289062 1339.230469 744.050781 C 1334.691406 761.789062 1341.921875 775.421875 1329.289062 772.53125 C 1316.679688 769.601562 1327.050781 742.941406 1341.429688 724.898438 C 1355.839844 706.851562 1360.671875 670.378906 1346.550781 659.410156 C 1332.410156 648.449219 1288.910156 647.03125 1318.558594 611.910156 C 1330.039062 598.339844 1353.011719 613.050781 1350.359375 626.96875 C 1347.691406 640.859375 1371.851562 640.460938 1378.210938 612.039062 C 1384.570312 583.578125 1392.898438 571.828125 1382.070312 551.371094 C 1371.28125 530.921875 1344.519531 517.058594 1360.578125 495.96875 "/>
<path fill-rule="evenodd" fill="rgb(0%, 0%, 0%)" fill-opacity="1" d="M 1877.828125 1767.414062 C 1877.828125 1767.414062 1842.558594 1767.175781 1854.039062 1749.785156 C 1865.511719 1732.425781 1875.421875 1720.570312 1885.519531 1723.457031 C 1895.601562 1726.328125 1914.261719 1761.050781 1877.828125 1767.414062 "/>
<path fill-rule="evenodd" fill="rgb(0%, 0%, 0%)" fill-opacity="1" d="M 1736.011719 983.648438 C 1736.011719 983.648438 1738.28125 957.25 1715.960938 963.449219 C 1693.640625 969.671875 1693.25 968.050781 1682.261719 978.230469 C 1671.25 988.390625 1657.359375 994.820312 1644.671875 997.351562 C 1631.96875 999.871094 1639.300781 1015.769531 1618.890625 1025.121094 C 1598.488281 1034.46875 1606.300781 1037.550781 1596.921875 1043.570312 C 1587.558594 1049.589844 1578.300781 1048.03125 1582.390625 1054.769531 C 1586.511719 1061.488281 1599.898438 1050.390625 1607.550781 1038.621094 C 1615.210938 1026.851562 1635.328125 1017.058594 1644.371094 1023.109375 C 1653.410156 1029.160156 1662.570312 1053.988281 1677.148438 1030.140625 C 1682.789062 1020.921875 1669.890625 1010.480469 1662.359375 1014.679688 C 1654.851562 1018.890625 1650.449219 1004.871094 1665.640625 995.738281 C 1680.839844 986.609375 1686.019531 979.550781 1699.910156 981.871094 C 1713.789062 984.179688 1726.921875 996.960938 1736.011719 983.648438 "/>
<g clip-path="url(#clip-1)">
<path fill-rule="evenodd" fill="rgb(0%, 0%, 0%)" fill-opacity="1" d="M 805.855469 1702.910156 C 813.851562 1706.472656 819.855469 1713.429688 822.21875 1721.855469 C 832.304688 1760.105469 828.125 1807.804688 824.261719 1849.757812 C 819.601562 1900.164062 796.210938 1944.910156 767.691406 1957.835938 C 739.152344 1970.746094 737.453125 1988.347656 732.207031 2022.410156 C 726.960938 2056.492188 706.851562 2029.410156 706.992188 2054.078125 C 707.136719 2078.746094 694.160156 2109.257812 684.753906 2117.28125 C 675.332031 2125.3125 687.789062 2151.058594 699.054688 2105.933594 C 710.324219 2060.835938 738.714844 2049.433594 741.839844 2035.28125 C 744.949219 2021.144531 767.414062 2011.023438 780.132812 1983.566406 C 792.847656 1956.109375 819.847656 1935.277344 832.71875 1894.320312 C 845.585938 1853.355469 896.792969 1807.066406 928.523438 1796.449219 C 960.269531 1785.820312 975.207031 1805.03125 982.980469 1816.828125 C 990.746094 1828.597656 1016.351562 1830.535156 1016.488281 1855.203125 C 1016.640625 1879.871094 1014.96875 1923.644531 1008.488281 1949.003906 C 1002.019531 1974.359375 990.71875 1999.261719 970.953125 2023.753906 C 951.195312 2048.246094 988.46875 2052.898438 994.167969 2016.476562 C 999.839844 1980.058594 1011.890625 1952.007812 1025.671875 1952.753906 C 1039.460938 1953.507812 1027.570312 1923.902344 1040.140625 1915.933594 C 1052.710938 1907.964844 1069.988281 1922.179688 1063.710938 1871.898438 C 1057.421875 1821.628906 1107.949219 1851.082031 1124.890625 1857.878906 C 1141.820312 1864.695312 1164.53125 1857.523438 1176.710938 1854.128906 C 1188.910156 1850.734375 1205.71875 1853.074219 1218.75 1824.796875 C 1231.789062 1796.519531 1247.671875 1833.484375 1275.421875 1841.695312 C 1303.171875 1849.894531 1325.621094 1851.753906 1333.820312 1867.199219 C 1342.011719 1882.636719 1348.269531 1912.707031 1356.679688 1916.882812 C 1365.070312 1921.046875 1363.441406 1940.859375 1374.371094 1952.710938 C 1385.289062 1964.558594 1380.390625 1973.851562 1389.71875 1981.558594 C 1399.039062 1989.265625 1398.761719 1977.234375 1374.859375 1944.578125 C 1350.980469 1911.917969 1367.351562 1913.144531 1352.910156 1892.335938 C 1338.460938 1871.515625 1339.679688 1869.8125 1340.898438 1847.515625 C 1342.140625 1825.214844 1349.910156 1801.613281 1360.058594 1802.410156 C 1360.058594 1802.410156 1378.070312 1755.078125 1395.539062 1769.996094 C 1413.011719 1784.929688 1426.140625 1811.273438 1432.078125 1809.980469 C 1438.019531 1808.695312 1405.289062 1781.367188 1401.921875 1766.382812 C 1398.539062 1751.390625 1422.199219 1729.792969 1431.929688 1714.972656 C 1441.648438 1700.121094 1431.378906 1636.484375 1462.640625 1646.171875 C 1462.640625 1646.171875 1453.660156 1625.660156 1471.308594 1603.132812 C 1488.980469 1580.589844 1489.199219 1551.347656 1489.671875 1525.042969 C 1490.148438 1498.742188 1507.421875 1454.589844 1534.558594 1458.425781 C 1561.699219 1462.261719 1575.679688 1483.867188 1581.421875 1477.796875 C 1587.171875 1471.710938 1617.328125 1477.152344 1638.039062 1482.390625 C 1658.75 1487.625 1673.839844 1481.355469 1663.210938 1474.679688 C 1652.589844 1468 1636.109375 1472.996094 1623.480469 1468.652344 C 1610.859375 1464.328125 1582.871094 1447.203125 1562.328125 1448.652344 C 1541.808594 1450.113281 1527.089844 1451.078125 1504.609375 1438.363281 C 1504.609375 1438.363281 1493.980469 1426.96875 1465.808594 1407.03125 C 1437.660156 1387.105469 1410.171875 1299.871094 1435.359375 1264.261719 C 1460.550781 1228.652344 1629.910156 1106.933594 1644.128906 1069.578125 C 1658.328125 1032.238281 1674.441406 1009.558594 1674.441406 1009.558594 L 1672.390625 1003.949219 C 1672.390625 1003.949219 1650.238281 1040.640625 1624.589844 1072.25 C 1598.949219 1103.855469 1489.671875 1222.644531 1438.039062 1247.882812 C 1386.410156 1273.113281 1406.109375 1186.382812 1406.109375 1186.382812 C 1406.109375 1186.382812 1368.191406 1188.601562 1348.429688 1136.632812 C 1327.289062 1080.980469 1355.378906 1046.160156 1345.71875 1012.730469 C 1345.71875 1012.730469 1360.011719 972.570312 1370.980469 958.269531 C 1381.960938 943.960938 1392.371094 931.179688 1389.261719 913.609375 C 1389.261719 913.609375 1396.628906 909.910156 1394.96875 899.738281 C 1394.96875 899.738281 1413.988281 895.621094 1414.421875 882.179688 C 1414.839844 868.761719 1410.691406 852.828125 1399.121094 874.28125 C 1387.550781 895.730469 1375.019531 904.070312 1368.058594 905.578125 C 1361.109375 907.089844 1371.480469 941.328125 1354.519531 964.640625 C 1337.550781 987.980469 1327.28125 999.328125 1320.578125 975.519531 C 1313.890625 951.710938 1316.949219 997.359375 1306.691406 991.871094 C 1296.449219 986.359375 1273.628906 1017.28125 1271.261719 1045.871094 C 1268.890625 1074.441406 1252.710938 1080.070312 1227.570312 1064.460938 C 1202.441406 1048.859375 1193.308594 1068.378906 1180.378906 1062.070312 C 1167.46875 1055.75 1163.738281 1046.210938 1164.109375 1032.980469 C 1164.5 1019.738281 1171.75 953.480469 1179.21875 932.109375 C 1186.691406 910.761719 1178.921875 901.480469 1172.539062 918.21875 C 1166.171875 934.941406 1168.421875 1002.429688 1157.601562 1025.621094 C 1146.789062 1048.800781 1125.429688 1040.269531 1126.730469 1015.871094 C 1128.039062 991.449219 1128.371094 948.628906 1136 942.589844 C 1143.621094 936.570312 1147.21875 953.308594 1151.769531 941.359375 C 1156.308594 929.421875 1158.828125 886.109375 1151.640625 843.808594 C 1144.460938 801.511719 1149.460938 797.148438 1151.769531 773.609375 C 1154.058594 750.089844 1136.761719 785.429688 1145.140625 843.949219 C 1153.5 902.480469 1133.179688 886.550781 1135.269531 913.449219 C 1137.390625 940.359375 1125.398438 964.019531 1122.101562 957 C 1118.808594 950 1086.140625 858.839844 1060.960938 824.839844 C 1035.761719 790.839844 1041.261719 753.101562 1030.910156 729.03125 C 1020.570312 704.960938 1022.539062 681.140625 1018.460938 661.558594 C 1014.390625 641.988281 1007.511719 675.589844 1015.699219 694.179688 C 1023.871094 712.761719 1013.128906 713.28125 1014.480469 734.550781 C 1015.839844 755.808594 1040.058594 768.511719 1026.390625 814 C 1012.71875 859.46875 1028.488281 964.28125 1011.921875 985.410156 C 995.375 1006.539062 989.273438 1019.550781 981.789062 1011.820312 C 974.316406 1004.089844 966.921875 1029.089844 956.695312 1024.28125 C 946.457031 1019.488281 922.554688 987.25 902.441406 991.621094 C 882.335938 995.980469 873.648438 1053.421875 851.964844 1014.269531 C 830.308594 975.109375 807.339844 980.089844 794.371094 964.628906 C 781.425781 949.171875 709.667969 869.980469 686.765625 860.058594 C 671.710938 853.550781 683.203125 866.789062 711.300781 894.378906 C 739.390625 921.949219 749.480469 914.53125 760.246094 945.878906 C 771.027344 977.210938 766.636719 1012.589844 747 991.398438 C 727.371094 970.21875 704.746094 935.460938 700.1875 919.980469 C 695.644531 904.5 679.613281 907.230469 668.070312 897.011719 C 656.527344 886.800781 636.53125 858.191406 622.089844 838.871094 C 622.089844 838.871094 644.117188 875.269531 658.796875 897.519531 C 673.480469 919.789062 659.4375 922.078125 692.230469 945.671875 C 725.027344 969.230469 749.960938 1002.75 758.242188 1034.621094 C 766.546875 1066.511719 733.679688 1128.121094 722.226562 1102.164062 C 710.769531 1076.210938 703.316406 1050.429688 681.96875 1033.359375 C 669.589844 1023.449219 656.179688 1021.441406 655.335938 1040.089844 C 654.507812 1058.140625 670.996094 1051.878906 695.378906 1083.269531 C 719.746094 1114.652344 732.585938 1118.816406 720.402344 1148.386719 C 708.25 1177.953125 708.527344 1178.042969 705.015625 1208.75 C 701.492188 1239.445312 690.066406 1239.6875 690.066406 1239.6875 C 690.066406 1239.6875 692.898438 1284.714844 689.175781 1294.515625 C 686.484375 1301.574219 690.0625 1324.394531 681.15625 1353.296875 C 672.257812 1348.578125 659.035156 1333.746094 658.621094 1336.835938 C 658.1875 1340.023438 671.167969 1346.859375 680.300781 1355.945312 C 678.164062 1362.394531 675.398438 1369.140625 671.78125 1376.042969 C 668.566406 1377.804688 666 1378.832031 666 1378.832031 C 666.886719 1384.753906 654.074219 1389.222656 641.71875 1389.886719 C 629.355469 1390.53125 628.460938 1391.242188 616.234375 1382.769531 C 604 1374.285156 605.417969 1383.847656 586.175781 1369.828125 C 566.949219 1355.800781 560.246094 1355.605469 564.941406 1361.0625 C 569.636719 1366.519531 574.601562 1363.6875 581.675781 1370.089844 C 588.753906 1376.496094 599.71875 1375.601562 602.40625 1380.488281 C 605.097656 1385.410156 622.113281 1389.140625 631.058594 1393.960938 C 640.023438 1398.792969 642.039062 1411.871094 647.828125 1428.070312 C 648.328125 1429.460938 648.933594 1430.792969 649.621094 1432.082031 C 645.84375 1463.5625 651.53125 1490.109375 625.675781 1486.421875 C 588.207031 1481.074219 565.472656 1500.234375 553.042969 1500.6875 C 540.621094 1501.128906 543.589844 1500.480469 515.359375 1518.589844 C 487.132812 1536.6875 463.03125 1528.4375 451.898438 1533.859375 C 440.753906 1539.261719 452.171875 1551.015625 469.007812 1541.367188 C 485.835938 1531.722656 508.789062 1527.5 522.933594 1535.65625 C 537.089844 1543.820312 540.347656 1586.511719 560.699219 1584.351562 C 581.046875 1582.179688 585.222656 1564.046875 567.195312 1547.011719 C 549.160156 1529.960938 559.464844 1511.257812 579.257812 1506.960938 C 596.738281 1503.175781 633.40625 1515.074219 653.925781 1534.355469 C 657.316406 1544.382812 656.878906 1553.632812 640.265625 1551.402344 C 612.007812 1547.597656 620.671875 1557.71875 616.800781 1565.027344 C 612.914062 1572.324219 595.90625 1565.320312 596.933594 1573.359375 C 597.945312 1581.394531 582.859375 1588.347656 562.828125 1591.558594 C 542.785156 1594.78125 547.003906 1616.527344 559.789062 1605.074219 C 572.566406 1593.609375 585.933594 1587.089844 599.777344 1583.390625 C 613.601562 1579.683594 637.90625 1578.816406 651.640625 1578.980469 C 665.386719 1579.132812 667.585938 1594.058594 674.484375 1598.617188 C 681.398438 1603.179688 718.617188 1632.472656 714.101562 1650.945312 C 713.425781 1653.675781 718.636719 1658.289062 728.019531 1664.15625 C 733.738281 1667.773438 737.597656 1673.703125 738.585938 1680.378906 C 739.578125 1687.085938 737.585938 1693.875 733.167969 1698.972656 C 721.542969 1712.246094 709.941406 1727.859375 699.707031 1747.824219 C 666.992188 1811.699219 657.191406 1885.980469 643.03125 1901.867188 C 628.875 1917.753906 619.785156 1924.535156 633.488281 1926.183594 C 647.207031 1927.828125 650.34375 1908.472656 650.34375 1908.472656 C 677.742188 1845.222656 752.269531 1794.28125 763.929688 1748.660156 C 766.746094 1737.597656 770.734375 1726.390625 775.183594 1715.398438 C 777.496094 1709.609375 782.070312 1705.003906 787.859375 1702.652344 C 793.628906 1700.289062 800.128906 1700.40625 805.835938 1702.9375 C 805.855469 1702.910156 805.855469 1702.910156 805.855469 1702.910156 "/>
</g>
<g clip-path="url(#clip-2)">
<path fill-rule="evenodd" fill="rgb(0%, 0%, 0%)" fill-opacity="1" d="M 1693.328125 1763.539062 C 1693.328125 1763.539062 1693.519531 1746.625 1711.039062 1734.640625 C 1728.550781 1722.652344 1788.871094 1726.628906 1808.101562 1700.308594 C 1827.351562 1674.003906 1774.378906 1709.703125 1736.089844 1715.15625 C 1697.808594 1720.582031 1689.859375 1712.019531 1702.480469 1704.15625 C 1715.109375 1696.3125 1782.320312 1676.695312 1800.679688 1656.15625 C 1819.050781 1635.59375 1799.011719 1655.558594 1766.390625 1671.457031 C 1733.789062 1687.367188 1699.191406 1698.3125 1697.339844 1691.9375 C 1695.488281 1685.558594 1758.460938 1642.511719 1807.789062 1605.597656 C 1857.128906 1568.679688 1948.089844 1525.011719 1938.800781 1513.136719 C 1929.53125 1501.25 1902.609375 1538.09375 1835.488281 1572.257812 C 1768.359375 1606.429688 1774.371094 1598.953125 1752.761719 1629.507812 C 1731.140625 1660.074219 1677.980469 1697.078125 1677.78125 1675.578125 C 1677.589844 1654.082031 1687.691406 1608.234375 1709.601562 1593.769531 C 1731.53125 1579.308594 1699.949219 1542.667969 1688.519531 1589.296875 C 1677.078125 1635.933594 1660.691406 1671.226562 1635.460938 1666.441406 C 1610.199219 1661.652344 1610.261719 1656.78125 1615.089844 1641.484375 C 1619.910156 1626.175781 1571.03125 1643.101562 1574 1624.089844 C 1582.941406 1566.925781 1553.980469 1639.125 1534.328125 1595.195312 C 1512.660156 1546.714844 1508.089844 1625.722656 1491.210938 1623.660156 C 1474.308594 1621.589844 1469.628906 1557.121094 1452.960938 1548.289062 C 1436.28125 1539.464844 1433.738281 1537.457031 1422.671875 1550.800781 C 1411.589844 1564.132812 1415.839844 1542.042969 1400.730469 1533.984375 C 1385.621094 1525.921875 1370.550781 1552.890625 1392.269531 1554.410156 C 1414 1555.949219 1420.480469 1574.261719 1408.050781 1584.605469 C 1395.621094 1594.945312 1381.601562 1556.082031 1360.75 1545.050781 C 1339.910156 1534.023438 1285.011719 1477.851562 1273.800781 1458.808594 C 1262.578125 1439.773438 1254.488281 1460.691406 1275.058594 1474.507812 C 1295.648438 1488.339844 1333.679688 1527.609375 1345.730469 1552.382812 C 1357.769531 1577.179688 1291.359375 1512.523438 1264.191406 1488.722656 C 1237.019531 1464.898438 1246.289062 1453.316406 1220.71875 1456.554688 C 1195.140625 1459.773438 1206.28125 1442.773438 1185.980469 1448.054688 C 1165.671875 1453.34375 1197.070312 1483.902344 1216.261719 1463.640625 C 1227.429688 1451.859375 1219.808594 1474.195312 1239.839844 1500.855469 C 1259.851562 1527.503906 1313.171875 1568.171875 1305.179688 1575.875 C 1297.179688 1583.578125 1276.808594 1549.824219 1249.300781 1532.574219 C 1221.808594 1515.304688 1217.53125 1516.234375 1205.378906 1508.386719 C 1193.230469 1500.539062 1204.710938 1512.648438 1214.199219 1524.804688 C 1223.710938 1536.960938 1206.410156 1533.394531 1225.011719 1550.132812 C 1243.609375 1566.886719 1299.011719 1619.667969 1295.089844 1633.671875 C 1291.171875 1647.648438 1230.21875 1597.679688 1221.988281 1606.179688 C 1213.769531 1614.660156 1256.191406 1918.433594 1262.011719 1916.523438 C 1295.398438 1905.597656 1314.878906 1931.113281 1327.871094 1960.710938 C 1342.300781 1993.636719 1310.808594 2036.976562 1280.878906 2028.03125 C 1250.949219 2019.097656 1267.75 2062.898438 1292.210938 2042.539062 C 1316.691406 2022.1875 1338.609375 2026.21875 1350.558594 2010.5 C 1362.519531 1994.78125 1391.628906 1992.015625 1396.210938 2003.882812 C 1400.800781 2015.742188 1396.199219 2022.871094 1405.980469 2016.386719 C 1415.769531 2009.90625 1435.039062 2042.542969 1414.160156 2050.851562 C 1393.28125 2059.136719 1399.179688 2089.699219 1415.558594 2101.660156 C 1431.949219 2113.601562 1441.878906 2124.316406 1420.851562 2129.433594 C 1399.820312 2134.53125 1408.140625 2172.1875 1424.171875 2159.675781 C 1440.199219 2147.167969 1431.628906 2131.199219 1443.179688 2114.988281 C 1454.738281 2098.757812 1476.71875 2125.863281 1456.941406 2150.574219 C 1437.160156 2175.285156 1451.210938 2179.253906 1439.910156 2187.828125 C 1428.628906 2196.390625 1362.21875 2233.464844 1366.980469 2243.539062 C 1371.730469 2253.609375 1388.558594 2237.148438 1401.351562 2226.503906 C 1414.140625 2215.867188 1435.210938 2208.257812 1447.519531 2187.53125 C 1459.820312 2166.828125 1457.390625 2161.4375 1470.71875 2154.464844 C 1484.039062 2147.507812 1498.320312 2139.757812 1503.910156 2154.90625 C 1509.488281 2170.070312 1513.578125 2187.300781 1533.25 2201.46875 C 1552.929688 2215.628906 1563.109375 2242.636719 1556.449219 2267.136719 C 1549.808594 2291.65625 1569.78125 2340.210938 1575.828125 2326.941406 C 1581.859375 2313.660156 1569.941406 2291.398438 1578.269531 2277.054688 C 1586.601562 2262.707031 1593.71875 2270.808594 1582.359375 2247.25 C 1570.96875 2223.710938 1538.71875 2175.464844 1548.371094 2165.792969 C 1558.011719 2156.121094 1615.828125 2153.511719 1629.699219 2158.730469 C 1643.558594 2163.972656 1669.890625 2183.320312 1679.441406 2179.242188 C 1688.96875 2175.171875 1651.960938 2155.691406 1653.171875 2145.65625 C 1654.390625 2135.617188 1710.019531 2169.28125 1714.179688 2198.035156 C 1718.339844 2226.808594 1726.71875 2195.339844 1723.839844 2182.277344 C 1720.949219 2169.203125 1694.339844 2132.03125 1709.851562 2126.882812 C 1725.371094 2121.710938 1649.480469 2107.46875 1636 2076.144531 C 1622.511719 2044.816406 1636.449219 2010.015625 1650.128906 2025.707031 C 1663.808594 2041.417969 1704.5 2037.207031 1699.710938 2015.433594 C 1694.890625 1993.644531 1698.46875 1991.964844 1716.328125 2005.449219 C 1734.21875 2018.945312 1731.28125 2043.300781 1749.269531 2033.5 C 1767.25 2023.703125 1750.109375 2009.597656 1728.421875 2000.578125 C 1706.699219 1991.566406 1708.070312 1962.054688 1722.75 1951.144531 C 1737.429688 1940.21875 1798.820312 1926.542969 1821.339844 1919.414062 C 1843.859375 1912.28125 1817.980469 1904.167969 1787.78125 1920.25 C 1757.589844 1936.328125 1723.878906 1946.328125 1712.5 1936.453125 C 1701.101562 1926.589844 1707.078125 1914.5 1717.070312 1912.9375 C 1727.070312 1911.390625 1723.890625 1895.023438 1712.160156 1903.078125 C 1700.449219 1911.128906 1688.429688 1912.675781 1685.179688 1904.394531 C 1681.921875 1896.132812 1691.53125 1898.695312 1692.980469 1890.308594 C 1694.429688 1881.917969 1687.550781 1895.671875 1679.410156 1889.339844 C 1671.261719 1883.023438 1679.328125 1878.152344 1683.609375 1868.25 C 1687.871094 1858.363281 1703.089844 1863.304688 1701.488281 1848.453125 C 1699.871094 1833.601562 1705.441406 1809.964844 1717.949219 1803.792969 C 1730.460938 1797.605469 1789.890625 1807.488281 1806.519531 1804.210938 C 1823.148438 1800.957031 1806.121094 1798.386719 1792.53125 1799.136719 C 1778.941406 1799.867188 1751.019531 1799.347656 1739.789062 1794.589844 C 1728.570312 1789.84375 1728.410156 1786.449219 1715.058594 1789.644531 C 1701.710938 1792.824219 1698.429688 1774.988281 1693.328125 1763.539062 "/>
</g>
<path fill-rule="evenodd" fill="rgb(0%, 0%, 0%)" fill-opacity="1" d="M 330.964844 1356.527344 C 330.964844 1356.527344 335.261719 1340.164062 321.546875 1323.96875 C 307.839844 1307.765625 248.625 1295.609375 237.058594 1265.136719 C 225.472656 1234.667969 267.085938 1283.132812 302.5625 1298.539062 C 338.035156 1313.921875 347.96875 1307.769531 337.886719 1296.84375 C 327.785156 1285.933594 268.179688 1249.203125 255.921875 1224.53125 C 243.660156 1199.835938 257.6875 1224.398438 284.925781 1248.375 C 312.144531 1272.355469 342.601562 1292.082031 346.078125 1286.421875 C 349.558594 1280.765625 300.246094 1222.566406 262.464844 1173.894531 C 224.671875 1125.21875 148.539062 1059 160.648438 1050.011719 C 172.742188 1041.011719 188.929688 1083.671875 244.589844 1134.40625 C 300.261719 1185.148438 296.453125 1176.347656 309.191406 1211.535156 C 321.933594 1246.742188 363.382812 1296.511719 369.277344 1275.835938 C 375.15625 1255.15625 377.570312 1208.273438 360.277344 1188.515625 C 342.960938 1168.761719 383.132812 1141.804688 381.785156 1189.792969 C 380.457031 1237.792969 386.90625 1276.164062 412.507812 1278.242188 C 438.132812 1280.320312 439.367188 1275.605469 438.765625 1259.578125 C 438.164062 1243.535156 480.816406 1272.816406 482.992188 1253.695312 C 489.523438 1196.207031 498.3125 1273.5 528.902344 1236.351562 C 562.644531 1195.347656 546.113281 1272.742188 562.933594 1275.230469 C 579.777344 1277.710938 601.378906 1216.789062 619.789062 1212.691406 C 638.21875 1208.601562 641.191406 1207.339844 648.335938 1223.140625 C 655.488281 1238.933594 657.246094 1216.511719 673.949219 1212.742188 C 690.65625 1208.972656 698.03125 1238.972656 676.6875 1234.679688 C 655.332031 1230.40625 644.222656 1246.34375 653.472656 1259.613281 C 662.71875 1272.878906 686.539062 1239.121094 709.558594 1234.011719 C 732.578125 1228.898438 800.410156 1189.289062 816.261719 1173.902344 C 832.125 1158.523438 834.378906 1180.832031 810.882812 1188.703125 C 787.363281 1196.582031 740.289062 1224.367188 722.101562 1245.0625 C 703.917969 1265.777344 785.097656 1221.042969 817.597656 1205.289062 C 850.117188 1189.523438 844.238281 1175.894531 868.042969 1185.796875 C 891.855469 1195.683594 885.613281 1176.335938 903.789062 1186.808594 C 921.972656 1197.289062 883.597656 1218.433594 870.464844 1193.8125 C 862.820312 1179.492188 864.246094 1203.050781 837.867188 1223.445312 C 811.507812 1243.835938 749.3125 1268.914062 754.976562 1278.464844 C 760.644531 1288.007812 789.238281 1260.863281 820.332031 1251.523438 C 851.417969 1242.15625 855.300781 1244.191406 869.09375 1239.839844 C 882.890625 1235.492188 868.609375 1244.128906 856.234375 1253.332031 C 843.839844 1262.53125 861.472656 1263.679688 839.105469 1274.890625 C 816.726562 1286.113281 749.316406 1322.324219 749.378906 1336.863281 C 749.453125 1351.378906 821.472656 1319.355469 827.152344 1329.730469 C 832.832031 1340.085938 711.414062 1621.753906 706.304688 1618.367188 C 677.003906 1598.980469 651.460938 1618.421875 631.09375 1643.519531 C 608.449219 1671.441406 627.328125 1721.578125 658.550781 1720.886719 C 689.78125 1720.203125 661.976562 1757.984375 643.78125 1731.871094 C 625.574219 1705.757812 603.371094 1703.835938 596.011719 1685.511719 C 588.652344 1667.183594 561.3125 1656.800781 553.75 1667.03125 C 546.179688 1677.25 548.730469 1685.34375 541.011719 1676.496094 C 533.296875 1667.652344 506.058594 1694.015625 523.992188 1707.558594 C 541.933594 1721.085938 528.144531 1748.992188 509.171875 1756.183594 C 490.203125 1763.351562 477.796875 1771.050781 496.710938 1781.558594 C 515.636719 1792.050781 497.636719 1826.152344 485.496094 1809.839844 C 473.355469 1793.53125 485.847656 1780.402344 479.011719 1761.710938 C 472.167969 1742.996094 443.789062 1763.304688 456.3125 1792.375 C 468.832031 1821.445312 454.230469 1821.550781 462.851562 1832.808594 C 471.457031 1844.058594 525.667969 1897.40625 518.40625 1905.863281 C 511.160156 1914.316406 499.300781 1893.980469 489.785156 1880.328125 C 480.265625 1866.675781 461.972656 1853.757812 455.597656 1830.511719 C 449.222656 1807.285156 452.992188 1802.730469 441.992188 1792.476562 C 430.988281 1782.234375 419.273438 1770.980469 409.875 1784.105469 C 400.46875 1797.246094 391.957031 1812.777344 369.242188 1821.222656 C 346.507812 1829.660156 329.539062 1853.003906 329.457031 1878.390625 C 329.363281 1903.792969 297.238281 1945.320312 294.921875 1930.921875 C 292.625 1916.515625 310.027344 1898.214844 305.796875 1882.171875 C 301.566406 1866.132812 292.546875 1872.054688 309.753906 1852.351562 C 326.96875 1832.671875 370.855469 1794.699219 364.117188 1782.816406 C 357.382812 1770.933594 302.328125 1753.09375 287.570312 1754.449219 C 272.816406 1755.828125 242.292969 1767.503906 234.167969 1761.046875 C 226.0625 1754.59375 266.910156 1745.617188 268.40625 1735.621094 C 269.882812 1725.617188 207.324219 1743.332031 195.691406 1769.953125 C 184.046875 1796.59375 184.3125 1764.03125 190.554688 1752.199219 C 196.804688 1740.355469 232.316406 1711.574219 218.722656 1702.492188 C 205.132812 1693.394531 282.085938 1699.777344 303.382812 1673.144531 C 324.699219 1646.519531 320.480469 1609.265625 303.132812 1620.765625 C 285.773438 1632.292969 247.652344 1617.445312 258.042969 1597.71875 C 268.464844 1577.984375 265.464844 1575.421875 244.664062 1583.6875 C 223.839844 1591.960938 220.222656 1616.226562 205.472656 1602.003906 C 190.730469 1587.789062 210.988281 1578.734375 234.300781 1575.785156 C 257.628906 1572.855469 264.132812 1544.035156 252.867188 1529.621094 C 241.613281 1515.199219 186.042969 1485.738281 166.21875 1472.898438 C 146.394531 1460.050781 173.503906 1459.085938 198.351562 1482.597656 C 223.203125 1506.101562 253.0625 1524.679688 266.648438 1518.175781 C 280.25 1511.683594 277.691406 1498.441406 268.46875 1494.289062 C 259.238281 1490.148438 266.648438 1475.210938 275.820312 1486.082031 C 284.980469 1496.949219 296.15625 1501.625 301.484375 1494.503906 C 306.820312 1487.402344 296.871094 1487.324219 297.703125 1478.855469 C 298.527344 1470.382812 301.515625 1485.464844 311.042969 1481.515625 C 320.570312 1477.589844 314.085938 1470.753906 312.585938 1460.066406 C 311.09375 1449.402344 295.105469 1450.136719 300.59375 1436.242188 C 306.085938 1422.347656 306.988281 1398.082031 296.554688 1388.8125 C 286.132812 1379.53125 226.210938 1373.308594 211.046875 1365.742188 C 195.871094 1358.195312 212.972656 1360.230469 225.878906 1364.558594 C 238.785156 1368.863281 265.851562 1375.765625 277.9375 1374.148438 C 290.011719 1372.550781 291.070312 1369.320312 303.09375 1375.9375 C 315.121094 1382.542969 323.015625 1366.214844 330.964844 1356.527344 "/>
<path fill-rule="evenodd" fill="rgb(0%, 0%, 0%)" fill-opacity="1" d="M 995.695312 1976.613281 C 995.695312 1976.613281 998.414062 1992.09375 990.65625 2004.585938 C 982.890625 2017.074219 967.015625 2034.441406 966.589844 2041.21875 C 966.183594 2047.992188 956.921875 2069.902344 951.429688 2067.414062 C 945.9375 2064.925781 952.886719 2057.632812 960.550781 2042.066406 C 968.214844 2026.5 966.710938 2014.472656 969.460938 2010.53125 C 972.234375 2006.601562 990.710938 1969.753906 995.695312 1976.613281 "/>
<path fill-rule="evenodd" fill="rgb(0%, 0%, 0%)" fill-opacity="1" d="M 1960.46875 1536.523438 C 1960.46875 1536.523438 2063.238281 1487.898438 2070.558594 1498.570312 C 2077.890625 1509.242188 2051.46875 1507.722656 2033.351562 1521.523438 C 2015.210938 1535.324219 1948.058594 1548.714844 1960.46875 1536.523438 "/>
<path fill-rule="evenodd" fill="rgb(0%, 0%, 0%)" fill-opacity="1" d="M 1485.949219 1204.730469 C 1485.949219 1204.730469 1588.710938 1156.105469 1596.039062 1166.777344 C 1603.371094 1177.460938 1576.949219 1175.929688 1558.820312 1189.722656 C 1540.691406 1203.53125 1473.539062 1216.914062 1485.949219 1204.730469 "/>
<path fill-rule="evenodd" fill="rgb(0%, 0%, 0%)" fill-opacity="1" d="M 1854.710938 1149.507812 C 1854.710938 1149.507812 1928.679688 1127.769531 1924.109375 1119.402344 C 1919.511719 1111.042969 1854.539062 1143.207031 1854.710938 1149.507812 "/>
<path fill-rule="evenodd" fill="rgb(0%, 0%, 0%)" fill-opacity="1" d="M 1950.328125 1759.410156 C 1950.328125 1759.410156 1976.101562 1740.324219 2024.679688 1730.035156 C 2073.25 1719.746094 2100.421875 1726.261719 2107.589844 1714.921875 C 2114.789062 1703.59375 2129.441406 1685.074219 2147.511719 1704.441406 C 2165.539062 1723.796875 2134.289062 1719.109375 2093.191406 1734.582031 C 2052.101562 1750.054688 1951.609375 1771.285156 1950.328125 1759.410156 "/>
<path fill-rule="evenodd" fill="rgb(0%, 0%, 0%)" fill-opacity="1" d="M 1323.371094 1061.671875 C 1323.371094 1061.671875 1307.121094 1098.570312 1329.699219 1094.730469 C 1352.28125 1090.878906 1368.671875 1086.089844 1370.53125 1074.210938 C 1372.390625 1062.328125 1346.699219 1026.640625 1323.371094 1061.671875 "/>
<path fill-rule="evenodd" fill="rgb(0%, 0%, 0%)" fill-opacity="1" d="M 1582.960938 1518.527344 C 1582.960938 1518.527344 1616.75 1516.769531 1624.039062 1506.21875 C 1631.328125 1495.664062 1644.800781 1511.808594 1670.410156 1502.804688 C 1696.011719 1493.789062 1739.800781 1470.039062 1754.128906 1464.421875 C 1768.460938 1458.804688 1789.148438 1460.472656 1802.410156 1446.0625 C 1815.660156 1431.648438 1816 1430.46875 1838.738281 1425.039062 C 1861.5 1419.605469 1858.039062 1410.671875 1869.640625 1406.097656 C 1881.25 1401.527344 1898.421875 1402.839844 1901.910156 1388.679688 C 1905.421875 1374.511719 1929.039062 1395.328125 1894.371094 1408.476562 C 1859.699219 1421.617188 1846.699219 1420.539062 1839.351562 1437.570312 C 1832 1454.597656 1830.660156 1442.472656 1804.378906 1453.851562 C 1778.101562 1465.25 1766.761719 1475.117188 1735.679688 1484.257812 C 1704.589844 1493.402344 1670.621094 1504.167969 1656.261719 1518.21875 C 1641.898438 1532.265625 1638.5 1516.875 1620.511719 1522.566406 C 1602.53125 1528.28125 1596.769531 1533.503906 1584.289062 1530.65625 C 1571.808594 1527.808594 1571.671875 1519.960938 1582.960938 1518.527344 "/>
<path fill-rule="evenodd" fill="rgb(0%, 0%, 0%)" fill-opacity="1" d="M 1933.949219 1387.152344 C 1933.949219 1387.152344 1916.289062 1387.097656 1919.519531 1379.46875 C 1922.75 1371.824219 1930.820312 1370.539062 1934.570312 1374.429688 C 1938.300781 1378.308594 1939.109375 1384.398438 1933.949219 1387.152344 "/>
<path fill-rule="evenodd" fill="rgb(0%, 0%, 0%)" fill-opacity="1" d="M 2006.011719 1372.078125 C 2006.011719 1372.078125 1962.449219 1386.207031 1960.179688 1356.855469 C 1957.929688 1327.507812 1980.058594 1314.8125 2006.109375 1318.703125 C 2032.148438 1322.609375 2031.398438 1360.5625 2006.011719 1372.078125 "/>
<g clip-path="url(#clip-3)">
<path fill-rule="evenodd" fill="rgb(0%, 0%, 0%)" fill-opacity="1" d="M 1204.300781 2090.199219 C 1204.300781 2090.199219 1208.460938 2074.949219 1216.71875 2080.019531 C 1224.960938 2085.078125 1224.320312 2093.898438 1218.53125 2100.617188 C 1212.738281 2107.3125 1202.738281 2099.722656 1204.300781 2090.199219 "/>
</g>
<path fill-rule="evenodd" fill="rgb(0%, 0%, 0%)" fill-opacity="1" d="M 854.570312 814.011719 C 854.570312 814.011719 854.296875 845.949219 844.085938 818.320312 C 833.828125 790.699219 811.1875 609.410156 809.207031 573.789062 C 807.214844 538.210938 808.640625 527.351562 794.816406 507.578125 C 781.019531 487.820312 765.457031 472.359375 759.027344 442.769531 C 752.640625 413.191406 727.136719 414.570312 731.742188 397.230469 C 736.34375 379.878906 749.464844 356.480469 752.636719 375.269531 C 755.839844 394.070312 751.101562 427.398438 772.824219 441.261719 C 794.585938 455.089844 792 491.410156 802.800781 510.328125 C 813.574219 529.230469 814.648438 570.949219 826.46875 589.011719 C 838.316406 607.070312 838.957031 607.640625 835.679688 672.671875 C 832.382812 737.71875 835.234375 737.238281 840.421875 753.738281 C 845.609375 770.199219 853.242188 791.589844 854.570312 814.011719 "/>
<path fill-rule="evenodd" fill="rgb(0%, 0%, 0%)" fill-opacity="1" d="M 1459.46875 777.949219 C 1459.46875 777.949219 1452.421875 809.109375 1468.691406 784.550781 C 1484.988281 760.011719 1548.53125 588.710938 1558.609375 554.488281 C 1568.699219 520.308594 1569.789062 509.410156 1587.769531 493.339844 C 1605.730469 477.25 1624.421875 465.769531 1637.441406 438.441406 C 1650.441406 411.101562 1674.949219 418.28125 1674.429688 400.339844 C 1673.921875 382.410156 1666.511719 356.628906 1659.121094 374.191406 C 1651.699219 391.761719 1648.679688 425.289062 1624.359375 433.808594 C 1600.019531 442.289062 1594.21875 478.238281 1579.371094 494.179688 C 1564.558594 510.109375 1553.960938 550.480469 1538.328125 565.359375 C 1522.660156 580.230469 1521.898438 580.628906 1510.210938 644.691406 C 1498.53125 708.761719 1495.871094 707.648438 1487.039062 722.519531 C 1478.21875 737.359375 1465.890625 756.429688 1459.46875 777.949219 "/>
<path fill-rule="evenodd" fill="rgb(0%, 0%, 0%)" fill-opacity="1" d="M 209.175781 503.019531 C 209.175781 503.019531 195.796875 534.5 263.773438 589.460938 C 331.691406 644.5 340.621094 718.851562 476.601562 835.429688 C 476.601562 835.429688 487.355469 787.121094 394.101562 708.140625 C 300.921875 629.128906 289.695312 542.289062 253.585938 517.808594 C 217.550781 493.300781 217.6875 482.191406 209.175781 503.019531 "/>
<path fill-rule="evenodd" fill="rgb(0%, 0%, 0%)" fill-opacity="1" d="M 492.65625 864.988281 C 492.65625 864.988281 517.714844 880.261719 536.507812 922.179688 C 555.351562 964.039062 601.363281 980.449219 594.480469 936.398438 C 587.671875 892.320312 514.117188 888.210938 508.804688 854.679688 C 503.503906 821.121094 481.996094 842.320312 492.65625 864.988281 "/>
<path fill-rule="evenodd" fill="rgb(0%, 0%, 0%)" fill-opacity="1" d="M 823.710938 907.449219 C 823.710938 907.449219 846.699219 930.308594 856.179688 912.859375 C 865.703125 895.449219 855.542969 880.421875 838.378906 874.378906 C 821.21875 868.378906 811.222656 892.078125 823.710938 907.449219 "/>
</svg>
